<?xml version="1.0" encoding="UTF-8"?>
<svg version="1.1" xmlns="http://www.w3.org/2000/svg" width="421" height="368">
<path d="M0 0 C12.87 0 25.74 0 39 0 C48.206339 18.41267801 48.206339 18.41267801 51.078125 24.5234375 C51.57813271 25.58183838 51.57813271 25.58183838 52.08824158 26.66162109 C53.14415562 28.89848012 54.19724565 31.13665239 55.25 33.375 C55.99907402 34.96436998 56.74817933 36.55372522 57.49731445 38.14306641 C62.2530076 48.24177013 66.96262093 58.36075114 71.62548828 68.50268555 C75.26183684 76.41183609 78.93697788 84.30233312 82.625 92.1875 C88.49196849 104.73329144 94.29911124 117.30616511 100.09396362 129.88540649 C105.54775617 141.7216613 111.05339677 153.53206049 116.60458374 165.32290649 C121.73246231 176.22142533 126.7366005 187.17305136 131.69274902 198.15063477 C136.25713408 208.2582139 140.93862674 218.29455064 145.85253906 228.23852539 C146.27116211 229.09567139 146.68978516 229.95281738 147.12109375 230.8359375 C147.4864624 231.57376465 147.85183105 232.3115918 148.22827148 233.07177734 C149 235 149 235 149 238 C133.49 238 117.98 238 102 238 C92.8794807 219.7589614 92.8794807 219.7589614 88.8125 210.75 C87.87044979 208.67938795 86.92771224 206.60908851 85.984375 204.5390625 C85.49904297 203.47333008 85.01371094 202.40759766 84.51367188 201.30957031 C81.88846954 195.56969243 79.22452131 189.84787102 76.5625 184.125 C75.45304917 181.73701439 74.343674 179.34899364 73.234375 176.9609375 C71.67184268 173.59769327 70.10910805 170.2345457 68.54492188 166.87207031 C61.65715532 152.05714544 54.91640952 137.18035459 48.23626709 122.27096558 C43.8420412 112.46567299 39.40818991 102.68124647 34.87890625 92.9375 C34.25411377 91.59204353 34.25411377 91.59204353 33.61669922 90.21940613 C31.610029 85.90086 29.59673323 81.58557696 27.57373047 77.2746582 C26.84976995 75.72094273 26.12596584 74.16715437 25.40234375 72.61328125 C25.07093887 71.91303833 24.739534 71.21279541 24.39808655 70.49133301 C22.78607688 67.01674778 21.53980566 63.80248829 21 60 C20.34 60 19.68 60 19 60 C18.65453125 61.1653125 18.3090625 62.330625 17.953125 63.53125 C15.7794737 70.03700354 12.75320634 76.14909952 9.79330444 82.32281494 C7.98695204 86.09234117 6.19888551 89.87052455 4.41015625 93.6484375 C4.0425972 94.42404022 3.67503815 95.19964294 3.29634094 95.99874878 C-0.48931335 104.00339801 -4.1624 112.05782387 -7.8125 120.125 C-8.12280151 120.81052948 -8.43310303 121.49605896 -8.75280762 122.20236206 C-9.97407057 124.90070814 -11.19519601 127.59911599 -12.41549683 130.29789734 C-15.25093486 136.56476315 -18.12398209 142.81416685 -21 149.0625 C-24.49530743 156.65786553 -27.90644103 164.27946815 -31.171875 171.9765625 C-32.73461612 175.52655765 -34.48453153 178.97249184 -36.234375 182.43359375 C-40.2219212 190.3312458 -43.87008902 198.37071948 -47.5 206.4375 C-48.4500252 208.54336472 -49.40089587 210.64884265 -50.35266113 212.75392151 C-50.93608609 214.04485563 -51.51851159 215.3362424 -52.0994873 216.62828064 C-55.32910035 223.78643095 -58.67806436 230.88156649 -62 238 C-77.51 238 -93.02 238 -109 238 C-107.87640701 231.25844207 -107.87640701 231.25844207 -106.0234375 227.54296875 C-105.60827881 226.69597412 -105.19312012 225.84897949 -104.76538086 224.97631836 C-104.30655518 224.0560083 -103.84772949 223.13569824 -103.375 222.1875 C-99.05734769 213.35129121 -94.90225555 204.45861889 -90.86349487 195.49285889 C-84.98652675 182.44820927 -78.95783145 169.48285897 -72.8125 156.5625 C-66.35916888 142.99167781 -59.99018092 129.38731278 -53.71728516 115.73193359 C-50.07654733 107.81436197 -46.41247368 99.90753342 -42.75 92 C-42.34296844 91.12110107 -41.93593689 90.24220215 -41.51657104 89.33666992 C-35.6019174 76.56945773 -29.64157344 63.8245685 -23.63964844 51.09817505 C-18.98277355 41.22372985 -14.34868229 31.33919275 -9.75 21.4375 C-9.22486816 20.30787842 -8.69973633 19.17825684 -8.15869141 18.0144043 C-7.66804199 16.95648682 -7.17739258 15.89856934 -6.671875 14.80859375 C-6.03910645 13.44432251 -6.03910645 13.44432251 -5.39355469 12.05249023 C-3.56564736 8.048579 -1.78758838 4.02207386 0 0 Z " fill="#F08420" transform="translate(144,55)"/>
<path d="M0 0 C14.19 0 28.38 0 43 0 C43.33 62.37 43.66 124.74 44 189 C41 188 41 188 39.859375 186.15039062 C39.49328125 185.32732422 39.1271875 184.50425781 38.75 183.65625 C38.31606934 182.69750977 37.88213867 181.73876953 37.43505859 180.75097656 C36.96148926 179.6781543 36.48791992 178.60533203 36 177.5 C35.21419934 175.75803808 34.42832682 174.01610785 33.64071655 172.27496338 C33.06150903 170.99343015 32.48361562 169.71130236 31.90689087 168.4286499 C29.42251483 162.90801537 26.88666662 157.41213035 24.3359375 151.921875 C23.92821106 151.04426514 23.52048462 150.16665527 23.10040283 149.26245117 C22.26942479 147.47460784 21.43826793 145.68684761 20.60693359 143.89916992 C19.41318912 141.3321225 18.21992888 138.76485186 17.02734375 136.19726562 C16.66595936 135.42013781 16.30457497 134.64300999 15.93223953 133.84233284 C15.16188271 132.17760806 14.39650575 130.51056128 13.63819504 128.84031487 C11.66349879 124.50386844 9.62145752 120.23689522 7.38677979 116.02798462 C0.20891258 102.121617 -1.37432704 90.68569013 -0.9765625 75.1953125 C-0.95784439 73.00718467 -0.94364154 70.8190141 -0.9336853 68.63082886 C-0.89602726 62.95156164 -0.79827322 57.27497102 -0.68664551 51.59674072 C-0.56491426 44.7411021 -0.52019641 37.88455374 -0.46211243 31.02813721 C-0.36608421 20.68357983 -0.1741559 10.34486062 0 0 Z " fill="#FDFDFD" transform="translate(242,55)"/>
<path d="M0 0 C0.92476135 -0.025746 1.84952271 -0.051492 2.80230713 -0.07801819 C7.04564333 -0.16200327 11.28879713 -0.22806135 15.53271484 -0.27441406 C17.77160941 -0.3060552 20.01033638 -0.35381032 22.24853516 -0.41796875 C25.47199689 -0.50916286 28.69243573 -0.54801718 31.91699219 -0.57592773 C33.41567841 -0.63315758 33.41567841 -0.63315758 34.94464111 -0.69154358 C41.69918756 -0.67263944 41.69918756 -0.67263944 44.30990601 1.83097839 C45.65159268 3.91138192 46.67206139 5.96868397 47.65136719 8.24047852 C48.22387207 9.38572998 48.79637695 10.53098145 49.38623047 11.7109375 C49.90942871 12.87439697 50.43262695 14.03785645 50.97167969 15.23657227 C51.26824463 15.89100815 51.56480957 16.54544403 51.87036133 17.2197113 C52.50994811 18.63249335 53.14702658 20.04641319 53.78179932 21.46136475 C55.51840653 25.33177679 57.27406339 29.19356078 59.02636719 33.05688477 C59.39569366 33.87257935 59.76502014 34.68827393 60.14553833 35.52868652 C64.62822133 45.41910952 69.20293645 55.26678056 73.77636719 65.11547852 C74.57735266 66.84128935 75.37829761 68.56711899 76.17919922 70.29296875 C76.7540657 71.53145821 76.7540657 71.53145821 77.34054565 72.79496765 C78.08388204 74.39692624 78.82683398 75.99906328 79.56936646 77.60139465 C81.21644234 81.15491822 82.86819225 84.70594306 84.53710938 88.24926758 C85.08786133 89.42457031 85.63861328 90.59987305 86.20605469 91.81079102 C86.68284668 92.82157715 87.15963867 93.83236328 87.65087891 94.8737793 C88.65136719 97.24047852 88.65136719 97.24047852 88.65136719 99.24047852 C73.14136719 99.24047852 57.63136719 99.24047852 41.65136719 99.24047852 C38.64011719 92.76422852 35.62886719 86.28797852 32.52636719 79.61547852 C31.58905762 77.60244629 30.65174805 75.58941406 29.68603516 73.51538086 C28.92171227 71.86913479 28.15754262 70.22281756 27.39355469 68.57641602 C27.01400635 67.76277588 26.63445801 66.94913574 26.2434082 66.11083984 C22.89033119 58.87636045 19.79714004 51.58061517 16.65136719 44.24047852 C3.12136719 44.24047852 -10.40863281 44.24047852 -24.34863281 44.24047852 C-22.0982282 37.48926467 -22.0982282 37.48926467 -20.5769043 34.17871094 C-20.23993027 33.44162399 -19.90295624 32.70453705 -19.55577087 31.94511414 C-19.19737625 31.16988907 -18.83898163 30.394664 -18.46972656 29.59594727 C-18.09759537 28.78555496 -17.72546417 27.97516266 -17.34205627 27.14021301 C-16.55937698 25.43767177 -15.77516448 23.73583461 -14.98950195 22.03466797 C-13.78285906 19.42088705 -12.58200987 16.80450074 -11.38183594 14.18774414 C-10.61980708 12.53198823 -9.85744896 10.87638381 -9.09472656 9.22094727 C-8.73430771 8.43560104 -8.37388885 7.65025482 -8.00254822 6.84111023 C-4.8972859 0.13122362 -4.8972859 0.13122362 0 0 Z " fill="#FDFDFD" transform="translate(144.3486328125,193.759521484375)"/>
<path d="M0 0 C32.34 0 64.68 0 98 0 C98 13.86 98 27.72 98 42 C96.30331793 43.69668207 94.18867982 43.11968993 91.92559814 43.12442017 C91.19983582 43.12082489 90.47407349 43.11722961 89.72631836 43.11352539 C88.58493156 43.11374443 88.58493156 43.11374443 87.42048645 43.1139679 C84.89357702 43.11326862 82.36674038 43.10547555 79.83984375 43.09765625 C78.0924941 43.09579212 76.34514393 43.0943682 74.59779358 43.09336853 C69.98968066 43.08954293 65.38159905 43.07971229 60.77349854 43.06866455 C56.07491479 43.05845134 51.37632601 43.0538711 46.67773438 43.04882812 C37.45180913 43.03809005 28.22590716 43.02101313 19 43 C17.09700035 38.9292992 15.19477493 34.85823772 13.29321289 30.78686523 C12.64855984 29.40688724 12.00370892 28.02700165 11.35864258 26.6472168 C9.51678477 22.70732982 7.67875423 18.76570294 5.84674072 14.82122803 C5.04254077 13.0914996 4.23498649 11.36333186 3.42724609 9.63525391 C2.97043457 8.64831543 2.51362305 7.66137695 2.04296875 6.64453125 C1.44585083 5.36026245 1.44585083 5.36026245 0.83666992 4.05004883 C0 2 0 2 0 0 Z " fill="#F0841F" transform="translate(287,250)"/>
<path d="M0 0 C12.87 0 25.74 0 39 0 C48.206339 18.41267801 48.206339 18.41267801 51.078125 24.5234375 C51.57813271 25.58183838 51.57813271 25.58183838 52.08824158 26.66162109 C53.14415562 28.89848012 54.19724565 31.13665239 55.25 33.375 C55.99907402 34.96436998 56.74817933 36.55372522 57.49731445 38.14306641 C62.24504472 48.22486096 66.94879476 58.32602039 71.60131836 68.45214844 C74.24812401 74.21196104 76.91230897 79.96303837 79.6015625 85.703125 C79.90839462 86.35812988 80.21522675 87.01313477 80.53135681 87.68798828 C81.15122285 89.01114999 81.77109081 90.3343108 82.39096069 91.6574707 C87.41046129 102.37433802 92.3714321 113.10720487 97 124 C96.01 124.495 96.01 124.495 95 125 C95 124.01 95 123.02 95 122 C94.34 122 93.68 122 93 122 C91.81100165 119.38420363 90.62208476 116.7683707 89.43359375 114.15234375 C88.51069728 112.12297741 87.58633425 110.09427704 86.66015625 108.06640625 C84.92597615 104.26596901 83.19953659 100.4684772 81.5625 96.625 C77.62451028 87.48886384 73.30419535 78.52995975 69 69.5625 C45.05170788 19.6292697 45.05170788 19.6292697 38 2 C25.79 2 13.58 2 1 2 C0.67 3.65 0.34 5.3 0 7 C-1.17982499 9.44967679 -2.58426557 11.67088852 -4 14 C-4.66 13.67 -5.32 13.34 -6 13 C-4.02 8.71 -2.04 4.42 0 0 Z " fill="#E6A06D" transform="translate(144,55)"/>
<path d="M0 0 C0.99 0.495 0.99 0.495 2 1 C0.59051449 4.35722844 -0.82888369 7.71018019 -2.25 11.0625 C-2.64574219 12.00544922 -3.04148437 12.94839844 -3.44921875 13.91992188 C-5.17118128 17.97076816 -6.87869604 21.94650393 -9.109375 25.74609375 C-10.68813934 28.46326461 -11.96306266 31.13234229 -13.16015625 34.03125 C-15.36090061 39.19020422 -17.8977933 44.20805842 -20.328125 49.26171875 C-22.66297077 54.13535767 -24.9111273 59.01612626 -27 64 C-30.37701514 71.92529883 -33.81702376 79.77029366 -37.75 87.4375 C-41.85074605 95.44483184 -45.40966271 103.67097776 -48.99414062 111.91943359 C-51.9277672 118.64283928 -55.02454878 125.20676634 -58.37890625 131.73046875 C-60.61195003 136.23422212 -62.59198466 140.83523326 -64.58251953 145.44995117 C-66.57303566 150.05620239 -68.69081407 154.54788953 -71 159 C-71.91879042 160.83226992 -72.83537775 162.66564588 -73.75 164.5 C-74.5 166 -75.25 167.5 -76 169 C-76.66 169 -77.32 169 -78 169 C-76.62711167 164.62146537 -74.94260412 160.54482562 -72.98046875 156.3984375 C-72.68581223 155.7730307 -72.3911557 155.1476239 -72.08757019 154.50326538 C-71.45402961 153.15948535 -70.81897992 151.81641596 -70.18255615 150.47399902 C-68.82372729 147.60764775 -67.47234247 144.73780743 -66.1204834 141.86816406 C-65.42595178 140.39402947 -64.73104374 138.92007217 -64.0357666 137.44628906 C-60.78803886 130.56020421 -57.57641592 123.65774818 -54.375 116.75 C-53.84302002 115.60281494 -53.31104004 114.45562988 -52.76293945 113.27368164 C-51.69724795 110.97534407 -50.63173502 108.67692369 -49.56640625 106.37841797 C-48.0351815 103.0758793 -46.50232565 99.77410383 -44.96875 96.47265625 C-44.2094519 94.83804443 -44.2094519 94.83804443 -43.43481445 93.17041016 C-42.92007568 92.0622998 -42.40533691 90.95418945 -41.875 89.8125 C-38.08343273 81.65009013 -34.29803643 73.48487045 -30.51953125 65.31640625 C-20.42816782 43.50530884 -10.26656325 21.7292101 0 0 Z " fill="#EDA26A" transform="translate(127,92)"/>
<path d="M0 0 C2.52956107 2.52956107 3.66265996 5.38401743 5.08984375 8.60546875 C5.39055786 9.27358078 5.69127197 9.94169281 6.00109863 10.63005066 C6.98372762 12.81416949 7.96054377 15.00083868 8.9375 17.1875 C10.28830302 20.19553196 11.64308065 23.20175376 13 26.20703125 C13.33809189 26.95617798 13.67618378 27.70532471 14.02452087 28.47717285 C17.49079779 36.1307273 21.12615109 43.69914476 24.84936523 51.23120117 C25.26903564 52.09076416 25.68870605 52.95032715 26.12109375 53.8359375 C26.4864624 54.57376465 26.85183105 55.3115918 27.22827148 56.07177734 C28 58 28 58 28 61 C12.49 61 -3.02 61 -19 61 C-23.70303864 51.59392272 -28.35613328 42.25500783 -32.6875 32.6875 C-33.13416016 31.70716797 -33.58082031 30.72683594 -34.04101562 29.71679688 C-34.92469703 27.77628893 -35.80611818 25.83474979 -36.68505859 23.89208984 C-37.59603848 21.88847533 -38.51627642 19.88905415 -39.44384766 17.89306641 C-39.90194824 16.9035498 -40.36004883 15.9140332 -40.83203125 14.89453125 C-41.45621948 13.55612183 -41.45621948 13.55612183 -42.09301758 12.19067383 C-43 10 -43 10 -43 8 C-42.34 8 -41.68 8 -41 8 C-39.74874665 10.64524678 -38.49897547 13.29117787 -37.25 15.9375 C-36.90195313 16.67291016 -36.55390625 17.40832031 -36.1953125 18.16601562 C-34.45039079 21.86589592 -32.73759819 25.5743491 -31.09375 29.3203125 C-28.14724564 35.9934917 -24.90988875 42.53113797 -21.71484375 49.08789062 C-21.23660156 50.07853516 -20.75835937 51.06917969 -20.265625 52.08984375 C-19.83024414 52.98566162 -19.39486328 53.88147949 -18.94628906 54.80444336 C-18 57 -18 57 -18 59 C-16.76846191 58.99476318 -15.53692383 58.98952637 -14.26806641 58.98413086 C-9.70964278 58.96606447 -5.15122233 58.95456196 -0.59277344 58.94506836 C1.38216687 58.9400319 3.35710343 58.93320249 5.33203125 58.92456055 C8.16667605 58.91246492 11.00127166 58.9067649 13.8359375 58.90234375 C14.72243988 58.89718246 15.60894226 58.89202118 16.52230835 58.88670349 C22.77225659 58.88612829 22.77225659 58.88612829 25 60 C22.66383915 53.83311576 20.03071903 47.84934547 17.21191406 41.88891602 C13.77854272 34.59255533 10.48589729 27.23301554 7.1875 19.875 C6.75197311 18.90510635 6.75197311 18.90510635 6.30764771 17.9156189 C5.46823658 16.04583677 4.63033247 14.1753873 3.79296875 12.3046875 C3.3033667 11.21140137 2.81376465 10.11811523 2.30932617 8.99169922 C1.1515181 6.346206 0.05371299 3.68835499 -1 1 C-0.67 0.67 -0.34 0.34 0 0 Z " fill="#ECA46B" transform="translate(265,232)"/>
<path d="M0 0 C32.34 0 64.68 0 98 0 C98 8.91 98 17.82 98 27 C97.67 27 97.34 27 97 27 C96.80370664 24.14619655 96.61773454 21.29232606 96.4375 18.4375 C96.38142578 17.63763672 96.32535156 16.83777344 96.26757812 16.01367188 C96.21923828 15.22412109 96.17089844 14.43457031 96.12109375 13.62109375 C96.05039673 12.54492798 96.05039673 12.54492798 95.97827148 11.44702148 C96.00639529 8.27977548 96.55206612 5.13553719 97 2 C51.46 2.495 51.46 2.495 5 3 C5.83114128 7.15570642 6.75181837 9.97229925 8.50390625 13.73828125 C8.99697266 14.80498047 9.49003906 15.87167969 9.99804688 16.97070312 C10.51431641 18.07349609 11.03058594 19.17628906 11.5625 20.3125 C12.08263672 21.43462891 12.60277344 22.55675781 13.13867188 23.71289062 C14.42099374 26.47752951 15.70824847 29.23975766 17 32 C16.34 32.66 15.68 33.32 15 34 C13.17790595 30.28649727 11.36343395 26.56937473 9.55566406 22.84887695 C8.94083952 21.58616412 8.32401347 20.32442366 7.70507812 19.0637207 C6.81100006 17.24167612 5.92440214 15.41614737 5.0390625 13.58984375 C4.50490723 12.49534912 3.97075195 11.40085449 3.42041016 10.27319336 C2 7 2 7 0 0 Z " fill="#F59B47" transform="translate(287,250)"/>
<path d="M0 0 C0.66 0.33 1.32 0.66 2 1 C0.29872114 6.6244465 -2.11955875 11.8577972 -4.5625 17.1875 C-5.3776068 18.97206089 -6.19146467 20.75719291 -7.00390625 22.54296875 C-7.36299072 23.32696045 -7.7220752 24.11095215 -8.09204102 24.91870117 C-9.09106389 27.12404621 -9.09106389 27.12404621 -10 30 C4.19 30 18.38 30 33 30 C33.99 27.03 34.98 24.06 36 21 C36.62843457 19.41780972 37.2793603 17.84392481 37.97265625 16.2890625 C38.31490234 15.51949219 38.65714844 14.74992187 39.00976562 13.95703125 C39.35716797 13.18746094 39.70457031 12.41789062 40.0625 11.625 C40.41376953 10.83222656 40.76503906 10.03945313 41.12695312 9.22265625 C42.59524487 5.94189851 43.9980655 3.00290175 46 0 C46.66 0 47.32 0 48 0 C46.65881434 4.2461604 45.05787106 8.23734092 43.1796875 12.2734375 C42.45628174 13.83457275 42.45628174 13.83457275 41.71826172 15.42724609 C41.10998535 16.73000488 40.50170898 18.03276367 39.875 19.375 C37.93625 23.54125 35.9975 27.7075 34 32 C18.49 32 2.98 32 -13 32 C-12.20333697 27.22002184 -11.57081198 24.63361049 -9.53125 20.48828125 C-8.79841797 18.98104492 -8.79841797 18.98104492 -8.05078125 17.44335938 C-7.28314453 15.89358398 -7.28314453 15.89358398 -6.5 14.3125 C-5.48816953 12.24678566 -4.47768945 10.18040917 -3.46875 8.11328125 C-3.01951172 7.20360596 -2.57027344 6.29393066 -2.10742188 5.35668945 C-0.91309015 2.93470828 -0.91309015 2.93470828 0 0 Z " fill="#E29E6A" transform="translate(48,261)"/>
<path d="M0 0 C1.82421875 0.11328125 1.82421875 0.11328125 4 1 C5.45703125 3.66796875 5.45703125 3.66796875 6.8125 7.1875 C7.31891437 8.46123395 7.82946847 9.73332835 8.34375 11.00390625 C8.74207031 11.99028076 8.74207031 11.99028076 9.1484375 12.99658203 C11.04617925 17.46128066 13.35097324 21.73454881 15.58203125 26.0390625 C16.72331229 28.42223337 17.51605628 30.42315679 18 33 C17.01 33.495 17.01 33.495 16 34 C14.14126179 30.07071564 12.29007275 26.13799181 10.44580078 22.2019043 C9.81733249 20.86336742 9.18681074 19.52579269 8.55419922 18.18920898 C7.64529632 16.26795662 6.7438322 14.34336622 5.84375 12.41796875 C5.29912109 11.26063232 4.75449219 10.1032959 4.19335938 8.91088867 C3 6 3 6 3 3 C2.34 3 1.68 3 1 3 C0.49533203 4.71896484 0.49533203 4.71896484 -0.01953125 6.47265625 C-2.2962648 13.2948637 -5.50875115 19.71109281 -8.60961914 26.18634033 C-10.42099963 29.96941772 -12.21594891 33.76027508 -14.01171875 37.55078125 C-14.36128632 38.28774231 -14.71085388 39.02470337 -15.0710144 39.78399658 C-18.86184297 47.79099528 -22.47964027 55.87074826 -26 64 C-26.33 64 -26.66 64 -27 64 C-26.49705245 58.05107347 -24.65972007 53.6186082 -22 48.3125 C-21.18048326 46.63239131 -20.36283554 44.95136992 -19.546875 43.26953125 C-19.12599609 42.40537598 -18.70511719 41.5412207 -18.27148438 40.65087891 C-16.18580417 36.302508 -14.21637445 31.90331289 -12.25 27.5 C-11.87343262 26.65840332 -11.49686523 25.81680664 -11.10888672 24.94970703 C-10.3928282 23.34897488 -9.67714993 21.74807255 -8.96191406 20.14697266 C-7.69588261 17.32121616 -6.41181151 14.50384495 -5.125 11.6875 C-3.35952298 7.81444661 -1.65563146 3.92123241 0 0 Z " fill="#EBA26B" transform="translate(162,112)"/>
<path d="M0 0 C0.33 0 0.66 0 1 0 C1.02685938 2.14576637 1.04633088 4.29162645 1.0625 6.4375 C1.07410156 7.63246094 1.08570313 8.82742188 1.09765625 10.05859375 C1 13 1 13 0 14 C-2.43396019 14.09498646 -4.83942952 14.12558417 -7.27368164 14.11352539 C-8.41506844 14.11374443 -8.41506844 14.11374443 -9.57951355 14.1139679 C-12.10642298 14.11326862 -14.63325962 14.10547555 -17.16015625 14.09765625 C-18.9075059 14.09579212 -20.65485607 14.0943682 -22.40220642 14.09336853 C-27.01031934 14.08954293 -31.61840095 14.07971229 -36.22650146 14.06866455 C-40.92508521 14.05845134 -45.62367399 14.0538711 -50.32226562 14.04882812 C-59.54819087 14.03809005 -68.77409284 14.02101313 -78 14 C-78.99 11.03 -79.98 8.06 -81 5 C-80.34 5 -79.68 5 -79 5 C-78.34 7.31 -77.68 9.62 -77 12 C-51.92 12 -26.84 12 -1 12 C-0.67 8.04 -0.34 4.08 0 0 Z " fill="#E69D63" transform="translate(384,279)"/>
<path d="M0 0 C0.66 0 1.32 0 2 0 C-0.26003454 7.52525994 -3.44019287 14.50601808 -6.80978394 21.58666992 C-8.40037783 24.92924551 -9.97537664 28.2791514 -11.55078125 31.62890625 C-11.85693863 32.27904694 -12.16309601 32.92918762 -12.47853088 33.59902954 C-14.71691711 38.36430595 -16.86846339 43.15917637 -18.9375 48 C-21.48153769 53.91695985 -24.30061732 59.64474966 -27.22265625 65.3828125 C-30.42685286 71.79120571 -33.1858699 78.41373807 -36 85 C-36.66 84.34 -37.32 83.68 -38 83 C-36.57150621 79.57949873 -35.13065154 76.16433993 -33.6875 72.75 C-33.28337891 71.78191406 -32.87925781 70.81382812 -32.46289062 69.81640625 C-32.06650391 68.88183594 -31.67011719 67.94726562 -31.26171875 66.984375 C-30.71970825 65.69611816 -30.71970825 65.69611816 -30.16674805 64.38183594 C-28.99936426 61.99870219 -27.6117677 60.0981006 -26 58 C-25.17327383 56.02244902 -24.40746458 54.01886974 -23.6875 52 C-21.63113133 46.47505766 -19.25260763 41.27092653 -16.52734375 36.046875 C-14.54409835 32.09052867 -12.77583971 28.05276003 -11 24 C-9.64763211 20.93670388 -8.29238009 17.87468564 -6.9375 14.8125 C-6.42993164 13.66104492 -6.42993164 13.66104492 -5.91210938 12.48632812 C-4.04314711 8.26760672 -2.10360321 4.10890721 0 0 Z " fill="#ECA871" transform="translate(133,176)"/>
<path d="M0 0 C0.33 0 0.66 0 1 0 C1.22941311 4.24912972 1.42956014 8.49918295 1.625 12.75 C1.68945312 13.93722656 1.75390625 15.12445313 1.8203125 16.34765625 C1.871875 17.52714844 1.9234375 18.70664062 1.9765625 19.921875 C2.02893066 20.99018555 2.08129883 22.05849609 2.13525391 23.15917969 C1.94774445 28.48390669 0.87592233 33.74446601 0 39 C-25.08 39 -50.16 39 -76 39 C-76.33 37.35 -76.66 35.7 -77 34 C-76.34 35.32 -75.68 36.64 -75 38 C-73.9532309 37.8934182 -73.9532309 37.8934182 -72.88531494 37.78468323 C-64.73406721 37.02218999 -56.6673088 36.86915009 -48.484375 36.90234375 C-47.13389133 36.90421464 -45.78340696 36.90563536 -44.43292236 36.90663147 C-40.92150922 36.91040394 -37.41013911 36.92018752 -33.89874268 36.93133545 C-30.29838645 36.94166455 -26.6980231 36.94615343 -23.09765625 36.95117188 C-16.06508683 36.96181593 -9.03254626 36.97882689 -2 37 C-1.96241577 35.42532959 -1.96241577 35.42532959 -1.92407227 33.81884766 C-1.83003733 29.93118676 -1.7298072 26.04370619 -1.62768555 22.15625 C-1.58432183 20.47237358 -1.5426478 18.78845277 -1.50268555 17.10449219 C-1.44501766 14.68671276 -1.3813135 12.26915705 -1.31640625 9.8515625 C-1.29969376 9.0963028 -1.28298126 8.34104309 -1.26576233 7.56289673 C-1.11387171 2.22774341 -1.11387171 2.22774341 0 0 Z " fill="#E6852C" transform="translate(383,252)"/>
<path d="M0 0 C0.66 0 1.32 0 2 0 C3.25125335 2.64524678 4.50102453 5.29117787 5.75 7.9375 C6.09804687 8.67291016 6.44609375 9.40832031 6.8046875 10.16601562 C8.54960921 13.86589592 10.26240181 17.5743491 11.90625 21.3203125 C14.85275436 27.9934917 18.09011125 34.53113797 21.28515625 41.08789062 C21.76339844 42.07853516 22.24164063 43.06917969 22.734375 44.08984375 C23.16975586 44.98566162 23.60513672 45.88147949 24.05371094 46.80444336 C25 49 25 49 25 51 C38.53 51 52.06 51 66 51 C66 51.33 66 51.66 66 52 C52.14 52.33 38.28 52.66 24 53 C19.29696136 43.59392272 14.64386672 34.25500783 10.3125 24.6875 C9.86583984 23.70716797 9.41917969 22.72683594 8.95898438 21.71679688 C8.07530297 19.77628893 7.19388182 17.83474979 6.31494141 15.89208984 C5.40396152 13.88847533 4.48372358 11.88905415 3.55615234 9.89306641 C3.09805176 8.9035498 2.63995117 7.9140332 2.16796875 6.89453125 C1.54378052 5.55612183 1.54378052 5.55612183 0.90698242 4.19067383 C0 2 0 2 0 0 Z " fill="#F1A669" transform="translate(222,240)"/>
<path d="M0 0 C32.34 0 64.68 0 98 0 C98 8.91 98 17.82 98 27 C97.67 27 97.34 27 97 27 C96.505 14.625 96.505 14.625 96 2 C65.31 1.67 34.62 1.34 3 1 C2.67 1.99 2.34 2.98 2 4 C1.34 2.68 0.68 1.36 0 0 Z " fill="#E4A16C" transform="translate(287,250)"/>
<path d="M0 0 C0.66 0 1.32 0 2 0 C0.65881434 4.2461604 -0.94212894 8.23734092 -2.8203125 12.2734375 C-3.54371826 13.83457275 -3.54371826 13.83457275 -4.28173828 15.42724609 C-4.89001465 16.73000488 -5.49829102 18.03276367 -6.125 19.375 C-8.06375 23.54125 -10.0025 27.7075 -12 32 C-26.19 31.67 -40.38 31.34 -55 31 C-55 30.67 -55 30.34 -55 30 C-41.14 30 -27.28 30 -13 30 C-12.01 27.03 -11.02 24.06 -10 21 C-9.37156543 19.41780972 -8.7206397 17.84392481 -8.02734375 16.2890625 C-7.68509766 15.51949219 -7.34285156 14.74992187 -6.99023438 13.95703125 C-6.64283203 13.18746094 -6.29542969 12.41789062 -5.9375 11.625 C-5.58623047 10.83222656 -5.23496094 10.03945313 -4.87304688 9.22265625 C-3.40475513 5.94189851 -2.0019345 3.00290175 0 0 Z " fill="#F2A567" transform="translate(94,261)"/>
<path d="M0 0 C0.66 0 1.32 0 2 0 C3.79782337 3.85882693 5.59423769 7.7183058 7.3894043 11.57836914 C7.99905259 12.8887663 8.60907149 14.19899112 9.21948242 15.5090332 C10.10174812 17.40269425 10.98263573 19.2969913 11.86328125 21.19140625 C12.39219971 22.32779541 12.92111816 23.46418457 13.46606445 24.63500977 C15.03181583 28.0697943 16.52161058 31.52690446 18 35 C19.26014385 37.78951725 20.53748913 40.570615 21.81640625 43.3515625 C22.40228516 44.66253906 22.40228516 44.66253906 23 46 C23.40089844 46.85335937 23.80179688 47.70671875 24.21484375 48.5859375 C25.09475227 51.29132788 24.78841866 52.34482752 24 55 C8.07026836 20.24791078 8.07026836 20.24791078 3 8.9375 C2.52143555 7.88006592 2.52143555 7.88006592 2.03320312 6.80126953 C0 2.23595374 0 2.23595374 0 0 Z " fill="#EFA770" transform="translate(179,146)"/>
<path d="M0 0 C1.50508529 2.25762793 2.66925435 4.26137451 3.81591797 6.68603516 C4.33688553 7.78330429 4.33688553 7.78330429 4.86837769 8.90274048 C5.23923492 9.69022675 5.61009216 10.47771301 5.9921875 11.2890625 C6.37939972 12.1069223 6.76661194 12.9247821 7.16555786 13.76742554 C7.9853487 15.50018447 8.80399448 17.23348554 9.62158203 18.96728516 C10.86100066 21.59531616 12.10400667 24.22162523 13.34765625 26.84765625 C14.14604774 28.53635698 14.94423129 30.22515604 15.7421875 31.9140625 C16.10899628 32.68940338 16.47580505 33.46474426 16.85372925 34.26358032 C18.68282267 38.14518817 20.49063638 42.03643202 22.26611328 45.94287109 C22.59894318 46.67299408 22.93177307 47.40311707 23.27468872 48.15536499 C24 50 24 50 24 52 C23.34 52 22.68 52 22 52 C19.99176748 47.71744898 17.98372129 43.43481066 15.97583008 39.15209961 C15.2961908 37.70253273 14.61650511 36.25298761 13.93676758 34.8034668 C13.61023193 34.10713135 13.28369629 33.4107959 12.94726562 32.69335938 C12.61997467 31.99570465 12.29268372 31.29804993 11.95547485 30.57925415 C11.29384916 29.16707534 10.63351394 27.75429123 9.97445679 26.34091187 C8.32372162 22.80362222 6.65417108 19.27798156 4.94189453 15.77001953 C4.45276329 14.75591759 4.45276329 14.75591759 3.95375061 13.72132874 C3.05955718 11.8691766 2.15617743 10.02146754 1.25219727 8.17407227 C0.05407445 5.13706804 -0.29052862 3.21546043 0 0 Z " fill="#ECA572" transform="translate(241,180)"/>
<path d="M0 0 C0.66 0 1.32 0 2 0 C7.86647433 12.24898112 13.54616618 24.56169235 19 37 C18.34 37.66 17.68 38.32 17 39 C14.57411549 33.76947117 12.15316595 28.53669836 9.73681641 23.30175781 C8.91363531 21.52020283 8.08909508 19.73927522 7.26318359 17.95898438 C6.07814704 15.40397158 4.89797293 12.84676266 3.71875 10.2890625 C3.34689575 9.49005524 2.9750415 8.69104797 2.59191895 7.86782837 C0 2.22774341 0 2.22774341 0 0 Z " fill="#F0AA72" transform="translate(204,201)"/>
<path d="M0 0 C1.73641293 2.6046194 3.19591518 5.15872396 4.625 7.9375 C5.07101562 8.79214844 5.51703125 9.64679688 5.9765625 10.52734375 C7 13 7 13 7 17 C-11.315 16.505 -11.315 16.505 -30 16 C-30 15.01 -30 14.02 -30 13 C-29.01 13 -28.02 13 -27 13 C-27 13.66 -27 14.32 -27 15 C-17.43 14.67 -7.86 14.34 2 14 C3.21340677 9.14637293 2.22271457 8.26761197 0 4 C0 2.68 0 1.36 0 0 Z " fill="#E7862E" transform="translate(283,275)"/>
<path d="M0 0 C0.33 0.66 0.66 1.32 1 2 C0.30322266 3.8918457 0.30322266 3.8918457 -0.8359375 6.17578125 C-1.24070313 7.00400391 -1.64546875 7.83222656 -2.0625 8.68554688 C-2.495625 9.55244141 -2.92875 10.41933594 -3.375 11.3125 C-4.22141877 13.0143147 -5.06273692 14.7186777 -5.8984375 16.42578125 C-6.27661621 17.18286377 -6.65479492 17.93994629 -7.04443359 18.7199707 C-8.05681586 21.13556548 -8.57075233 23.42195557 -9 26 C-9.66 26 -10.32 26 -11 26 C-11.33 27.65 -11.66 29.3 -12 31 C-12.99 30.67 -13.98 30.34 -15 30 C-14.34 30 -13.68 30 -13 30 C-13.268125 29.154375 -13.53625 28.30875 -13.8125 27.4375 C-14.04588246 23.15882157 -12.88831174 21.87827039 -10.2265625 18.7109375 C-8.86827486 16.81625601 -8.55672914 15.23635264 -8 13 C-7.34 12.67 -6.68 12.34 -6 12 C-5.54212876 10.00498961 -5.08541491 8.00968633 -4.640625 6.01171875 C-3.76324299 3.25652525 -2.22725508 1.78180406 0 0 Z " fill="#E8862F" transform="translate(144,150)"/>
<path d="M0 0 C0.33 0 0.66 0 1 0 C1.22941311 4.24912972 1.42956014 8.49918295 1.625 12.75 C1.68945312 13.93722656 1.75390625 15.12445313 1.8203125 16.34765625 C2.1623487 24.17173432 1.62598705 31.33689745 0 39 C-0.33 39 -0.66 39 -1 39 C-1.02467917 33.76725612 -1.04285003 28.53454597 -1.05493164 23.30175781 C-1.05996711 21.52082733 -1.06679581 19.739901 -1.07543945 17.95898438 C-1.08753942 15.40233335 -1.09323609 12.84573688 -1.09765625 10.2890625 C-1.10281754 9.49005524 -1.10797882 8.69104797 -1.11329651 7.86782837 C-1.11387171 2.22774341 -1.11387171 2.22774341 0 0 Z " fill="#EF9241" transform="translate(383,252)"/>
<path d="M0 0 C12.54 0.33 25.08 0.66 38 1 C38 1.33 38 1.66 38 2 C25.79 2 13.58 2 1 2 C0.67 3.65 0.34 5.3 0 7 C-1.17982499 9.44967679 -2.58426557 11.67088852 -4 14 C-4.66 13.67 -5.32 13.34 -6 13 C-4.02 8.71 -2.04 4.42 0 0 Z " fill="#EA9555" transform="translate(144,55)"/>
<path d="M0 0 C0.66 0 1.32 0 2 0 C6.29 9.24 10.58 18.48 15 28 C14.34 28.66 13.68 29.32 13 30 C11.14108803 26.21334156 9.28990824 22.42303238 7.44580078 18.62915039 C6.81738066 17.33905612 6.18685936 16.04998316 5.55419922 14.76196289 C4.6451669 12.91036252 3.7437552 11.05522033 2.84375 9.19921875 C2.29912109 8.08377686 1.75449219 6.96833496 1.19335938 5.8190918 C0 3 0 3 0 0 Z " fill="#F1A265" transform="translate(289,254)"/>
<path d="M0 0 C2.74999027 3.22824944 3.10429689 4.52148447 4 9 C-10.85 9 -25.7 9 -41 9 C-41 8.67 -41 8.34 -41 8 C-27.14 8 -13.28 8 1 8 C0.505 4.04 0.505 4.04 0 0 Z " fill="#D89870" transform="translate(289,284)"/>
<path d="M0 0 C0.66 0 1.32 0 2 0 C0.17903618 8.40444838 -4.05917794 16.41026862 -8 24 C-8.66 23.34 -9.32 22.68 -10 22 C-9.4225 20.906875 -8.845 19.81375 -8.25 18.6875 C-6.08489567 14.38800205 -4.48311844 9.96913624 -2.9296875 5.41796875 C-2 3 -2 3 0 0 Z " fill="#E7862F" transform="translate(119,202)"/>
<path d="M0 0 C0.90202956 2.48870206 1.08462506 3.72806337 0.28735352 6.29003906 C-0.09493408 7.10698242 -0.47722168 7.92392578 -0.87109375 8.765625 C-1.28037109 9.65507812 -1.68964844 10.54453125 -2.11132812 11.4609375 C-2.54896484 12.38132813 -2.98660156 13.30171875 -3.4375 14.25 C-3.87126953 15.18585938 -4.30503906 16.12171875 -4.75195312 17.0859375 C-5.82433315 19.3956791 -6.90726403 21.69983671 -8 24 C-8.66 23.34 -9.32 22.68 -10 22 C-8.5247255 18.51917004 -7.04413293 15.04062769 -5.5625 11.5625 C-5.14162109 10.56927734 -4.72074219 9.57605469 -4.28710938 8.55273438 C-3.88427734 7.60849609 -3.48144531 6.66425781 -3.06640625 5.69140625 C-2.69459229 4.81685791 -2.32277832 3.94230957 -1.93969727 3.04125977 C-1 1 -1 1 0 0 Z " fill="#F2A568" transform="translate(105,237)"/>
<path d="M0 0 C0.66 0 1.32 0 2 0 C3.53985063 3.24132085 5.05345772 6.49423568 6.5625 9.75 C7.00013672 10.67039062 7.43777344 11.59078125 7.88867188 12.5390625 C8.29794922 13.42851563 8.70722656 14.31796875 9.12890625 15.234375 C9.51119385 16.05131836 9.89348145 16.86826172 10.28735352 17.70996094 C11.08462506 20.27193663 10.90202956 21.51129794 10 24 C8.32724698 20.37777789 6.66283749 16.7517834 5 13.125 C4.28457031 11.57619141 4.28457031 11.57619141 3.5546875 9.99609375 C3.10351562 9.00996094 2.65234375 8.02382812 2.1875 7.0078125 C1.76855469 6.09660645 1.34960938 5.18540039 0.91796875 4.24658203 C0 2 0 2 0 0 Z " fill="#EDA265" transform="translate(191,75)"/>
<path d="M0 0 C0.66 0 1.32 0 2 0 C2 0.66 2 1.32 2 2 C2.66 2 3.32 2 4 2 C4.33773437 2.98742187 4.67546875 3.97484375 5.0234375 4.9921875 C5.47365533 6.28656377 5.92419284 7.58082887 6.375 8.875 C6.59671875 9.52597656 6.8184375 10.17695313 7.046875 10.84765625 C8.06962626 13.76550545 8.78556651 15.78556651 11 18 C11.125 20.625 11.125 20.625 11 23 C7.97627311 19.68829912 6.96744011 16.14184128 5.74609375 11.92578125 C5.17323701 9.8064259 5.17323701 9.8064259 3 9 C2.1484375 6.93359375 2.1484375 6.93359375 1.375 4.4375 C1.11460937 3.61121094 0.85421875 2.78492188 0.5859375 1.93359375 C0.39257812 1.29550781 0.19921875 0.65742188 0 0 Z " fill="#E78633" transform="translate(176,136)"/>
<path d="M0 0 C0.66 0 1.32 0 2 0 C-0.23313726 7.44379088 -3.40272079 14.11976695 -7 21 C-7.66 21 -8.32 21 -9 21 C-7.50640515 16.15713185 -5.54966433 11.68649104 -3.375 7.125 C-2.88773438 6.09246094 -2.88773438 6.09246094 -2.390625 5.0390625 C-1.59676528 3.35794781 -0.79880442 1.67877079 0 0 Z " fill="#EDA46F" transform="translate(137,70)"/>
<path d="M0 0 C0.33 0 0.66 0 1 0 C0.93983797 1.7717719 0.85100672 3.54258679 0.75 5.3125 C0.70359375 6.29863281 0.6571875 7.28476563 0.609375 8.30078125 C0 11 0 11 -1.921875 12.85546875 C-4 14 -4 14 -6 14 C-4.50829734 9.0276578 -2.39542583 4.58154261 0 0 Z " fill="#EC862E" transform="translate(108,137)"/>
<path d="M0 0 C0.66 0.33 1.32 0.66 2 1 C1.67 1.66 1.34 2.32 1 3 C1.99 3.33 2.98 3.66 4 4 C2.02 4.99 2.02 4.99 0 6 C0.33 7.32 0.66 8.64 1 10 C-1.31 11.65 -3.62 13.3 -6 15 C-4 10 -2 5 0 0 Z " fill="#EA852B" transform="translate(123,104)"/>
<path d="M0 0 C0.33 0 0.66 0 1 0 C1.02685938 2.14576637 1.04633088 4.29162645 1.0625 6.4375 C1.07410156 7.63246094 1.08570313 8.82742188 1.09765625 10.05859375 C1 13 1 13 0 14 C-2.69654854 14.07319621 -5.36691458 14.09242537 -8.0625 14.0625 C-9.20041992 14.05573242 -9.20041992 14.05573242 -10.36132812 14.04882812 C-12.24091871 14.0370068 -14.12046899 14.01907078 -16 14 C-16 13.67 -16 13.34 -16 13 C-11.05 12.67 -6.1 12.34 -1 12 C-0.67 8.04 -0.34 4.08 0 0 Z " fill="#DD9D70" transform="translate(384,279)"/>
<path d="M0 0 C3.05001831 3.66002197 7 9.07851471 7 14 C5.68 14 4.36 14 3 14 C-1.28234266 4.13199301 -1.28234266 4.13199301 0 0 Z " fill="#EB8631" transform="translate(211,120)"/>
<path d="M0 0 C0.66 0.33 1.32 0.66 2 1 C2 1.99 2 2.98 2 4 C2.66 4 3.32 4 4 4 C4.33 7.3 4.66 10.6 5 14 C2.07397905 12.53698952 1.90294791 10.58977236 0.8125 7.5625 C0.44769531 6.57378906 0.08289063 5.58507812 -0.29296875 4.56640625 C-1 2 -1 2 0 0 Z " fill="#EB8930" transform="translate(300,270)"/>
<path d="M0 0 C0.33 0 0.66 0 1 0 C1 1.65 1 3.3 1 5 C0.34 5 -0.32 5 -1 5 C-0.67 6.32 -0.34 7.64 0 9 C-0.99 9 -1.98 9 -3 9 C-4.71711243 11.44496043 -4.71711243 11.44496043 -6 14 C-6.66 13.34 -7.32 12.68 -8 12 C-7.34 12 -6.68 12 -6 12 C-5.7525 11.13375 -5.505 10.2675 -5.25 9.375 C-3.92771105 5.80481983 -2.25545068 3.05577189 0 0 Z " fill="#E9852B" transform="translate(57,249)"/>
<path d="M0 0 C2.5 1.1875 2.5 1.1875 5 3 C5.125 5.3125 5.125 5.3125 5 8 C6.41623241 11.25058324 6.41623241 11.25058324 8 14 C7.01 14.495 7.01 14.495 6 15 C4.99539469 12.87717331 3.99644398 10.75166979 3 8.625 C2.443125 7.44164062 1.88625 6.25828125 1.3125 5.0390625 C0 2 0 2 0 0 Z " fill="#EB862C" transform="translate(187,159)"/>
<path d="M0 0 C3.89985574 4.15984612 4.89169747 7.55084591 6 13 C5.01 13.33 4.02 13.66 3 14 C0.875 7.25 0.875 7.25 2 5 C1.34 5 0.68 5 0 5 C0 3.35 0 1.7 0 0 Z " fill="#E8842B" transform="translate(223,146)"/>
<path d="M0 0 C0.66 0 1.32 0 2 0 C2.33 1.65 2.66 3.3 3 5 C3.99 5 4.98 5 6 5 C6 7.64 6 10.28 6 13 C3.80421527 10.32687076 2.80350799 8.32881882 2 5 C1.34 4.67 0.68 4.34 0 4 C0 2.68 0 1.36 0 0 Z " fill="#EA872D" transform="translate(222,235)"/>
<path d="M0 0 C0.66 0.99 1.32 1.98 2 3 C0.79724696 7.32991096 -1.73452211 11.14868759 -4 15 C-4.66 15 -5.32 15 -6 15 C-4.40109514 9.80355921 -2.25861997 4.93387858 0 0 Z " fill="#E8862F" transform="translate(83,190)"/>
<path d="M0 0 C3.96 0 7.92 0 12 0 C12 0.33 12 0.66 12 1 C8.37 1 4.74 1 1 1 C1.515625 1.94875 2.03125 2.8975 2.5625 3.875 C3.036875 4.90625 3.51125 5.9375 4 7 C3.67 7.66 3.34 8.32 3 9 C2.34 9 1.68 9 1 9 C-0.79682816 5.19495213 -1.07349791 4.29399165 0 0 Z " fill="#EB882B" transform="translate(292,252)"/>
<path d="M0 0 C0.66 0.66 1.32 1.32 2 2 C0.02 5.96 -1.96 9.92 -4 14 C-4.66 13.67 -5.32 13.34 -6 13 C-4.02 8.71 -2.04 4.42 0 0 Z " fill="#EFA46C" transform="translate(144,55)"/>
<path d="M0 0 C3.26356713 2.17571142 3.39646342 2.38091689 4.125 5.9375 C4.64593923 8.38225866 5.20554143 10.61662429 6 13 C5.01 13.33 4.02 13.66 3 14 C1.15968523 12.15968523 1.53355663 9.54615059 1.25390625 7.078125 C0.96191187 4.68826329 0.51436873 2.35139992 0 0 Z " fill="#EA8B3A" transform="translate(238,177)"/>
<path d="M0 0 C2.83222793 3.37169992 4.52103176 6.85888893 6 11 C5.578125 13.21875 5.578125 13.21875 5 15 C4.15733289 13.25447527 3.32619962 11.5033792 2.5 9.75 C2.0359375 8.77546875 1.571875 7.8009375 1.09375 6.796875 C0 4 0 4 0 0 Z " fill="#EAA268" transform="translate(186,159)"/>
<path d="M0 0 C0.66 0.33 1.32 0.66 2 1 C1.18796242 2.79187629 0.37535532 4.58349451 -0.4375 6.375 C-0.88996094 7.37273437 -1.34242187 8.37046875 -1.80859375 9.3984375 C-2.51597316 10.94307583 -3.24022461 12.48044922 -4 14 C-4.66 14 -5.32 14 -6 14 C-4.50829734 9.0276578 -2.39542583 4.58154261 0 0 Z " fill="#EFA973" transform="translate(127,92)"/>
<path d="M0 0 C0.66 0 1.32 0 2 0 C6.06153846 6.4 6.06153846 6.4 5.75 9.4375 C5.5025 9.953125 5.255 10.46875 5 11 C4.67 10.01 4.34 9.02 4 8 C3.01 7.67 2.02 7.34 1 7 C0.67 4.69 0.34 2.38 0 0 Z " fill="#EA832B" transform="translate(242,190)"/>
<path d="M0 0 C0.66 0 1.32 0 2 0 C1.52269162 1.4589426 1.04308958 2.91713496 0.5625 4.375 C0.29566406 5.18710938 0.02882813 5.99921875 -0.24609375 6.8359375 C-1 9 -1 9 -2 11 C-2.66 11 -3.32 11 -4 11 C-3.39301257 6.87248551 -1.96189209 3.6678852 0 0 Z " fill="#F1AA74" transform="translate(71,212)"/>
<path d="M0 0 C0.66 0 1.32 0 2 0 C0.68938409 4.23429756 -0.94356259 8.07407404 -3 12 C-3.66 12 -4.32 12 -5 12 C-3.68938409 7.76570244 -2.05643741 3.92592596 0 0 Z " fill="#EC9E5D" transform="translate(95,161)"/>
<path d="M0 0 C-1.47692308 6.52307692 -1.47692308 6.52307692 -4.125 8.9375 C-4.74375 9.288125 -5.3625 9.63875 -6 10 C-5.38909774 3.52443609 -5.38909774 3.52443609 -3.5625 1.0625 C-2 0 -2 0 0 0 Z " fill="#EB872F" transform="translate(143,66)"/>
<path d="M0 0 C2.50298434 2.93828597 3.46930939 5.17902761 4 9 C1.69 9 -0.62 9 -3 9 C-1.68 8.67 -0.36 8.34 1 8 C0.67 5.36 0.34 2.72 0 0 Z " fill="#E0A978" transform="translate(289,284)"/>
<path d="M0 0 C0.33 0 0.66 0 1 0 C0.49202991 4.3177458 -0.19682779 8.03302114 -2 12 C-2.66 12 -3.32 12 -4 12 C-3.45660208 7.43545749 -2.20536179 4.0271824 0 0 Z " fill="#E6A873" transform="translate(39,281)"/>
<path d="M0 0 C0.99 0.495 0.99 0.495 2 1 C2 1.66 2 2.32 2 3 C2.66 3.33 3.32 3.66 4 4 C5.05352843 6.30965848 6.05719096 8.6429774 7 11 C6.01 11.495 6.01 11.495 5 12 C4.16180842 10.37750059 3.3295884 8.75191503 2.5 7.125 C2.0359375 6.22007813 1.571875 5.31515625 1.09375 4.3828125 C0 2 0 2 0 0 Z " fill="#E9892F" transform="translate(168,118)"/>
<path d="M0 0 C0.66 0 1.32 0 2 0 C5.34821429 6.96428571 5.34821429 6.96428571 4 11 C3.32591692 9.73308493 2.66099503 8.46129251 2 7.1875 C1.62875 6.47980469 1.2575 5.77210938 0.875 5.04296875 C0 3 0 3 0 0 Z " fill="#F5A471" transform="translate(289,254)"/>
<path d="M0 0 C0.99 0 1.98 0 3 0 C3 1.65 3 3.3 3 5 C1.68 5 0.36 5 -1 5 C-1.99 5.66 -2.98 6.32 -4 7 C-3.67 5.68 -3.34 4.36 -3 3 C-2.34 3 -1.68 3 -1 3 C-0.67 2.01 -0.34 1.02 0 0 Z " fill="#ED892B" transform="translate(93,256)"/>
<path d="M0 0 C2.69725519 1.88807863 4.13216429 3.19824644 6 6 C6 6.66 6 7.32 6 8 C5.01 8 4.02 8 3 8 C0 2.25 0 2.25 0 0 Z " fill="#ED892F" transform="translate(199,186)"/>
<path d="M0 0 C0.99 0.33 1.98 0.66 3 1 C2.34 1 1.68 1 1 1 C1.0825 1.763125 1.165 2.52625 1.25 3.3125 C1 6 1 6 -1 7.8125 C-1.66 8.204375 -2.32 8.59625 -3 9 C-2.44271087 5.65626525 -1.64826111 2.96687001 0 0 Z " fill="#EA872D" transform="translate(100,154)"/>
<path d="M0 0 C0.66 0.66 1.32 1.32 2 2 C0.68 4.64 -0.64 7.28 -2 10 C-3 6 -3 6 -2.125 3.875 C-1.75375 3.25625 -1.3825 2.6375 -1 2 C-0.67 1.34 -0.34 0.68 0 0 Z " fill="#E7852B" transform="translate(149,137)"/>
<path d="M0 0 C0.66 1.32 1.32 2.64 2 4 C0.625 6 0.625 6 -1 8 C-1.66 8 -2.32 8 -3 8 C-2.690625 7.236875 -2.38125 6.47375 -2.0625 5.6875 C-1.32106407 3.81210323 -0.63771783 1.91315348 0 0 Z " fill="#E9832C" transform="translate(74,210)"/>
<path d="M0 0 C0.66 0 1.32 0 2 0 C1.1875 2.9375 1.1875 2.9375 0 6 C-0.99 6.33 -1.98 6.66 -3 7 C-3 5.35 -3 3.7 -3 2 C-2.01 2.33 -1.02 2.66 0 3 C0 2.01 0 1.02 0 0 Z " fill="#E9852B" transform="translate(123,194)"/>
<path d="M0 0 C2.7972908 2.06756277 3.02692273 3.14440371 3.6875 6.6875 C3.790625 7.780625 3.89375 8.87375 4 10 C1.16625119 6.79663178 0.4794463 4.21912747 0 0 Z " fill="#EFA065" transform="translate(182,55)"/>
<path d="M0 0 C0.99 0.33 1.98 0.66 3 1 C2.67 2.98 2.34 4.96 2 7 C0.4375 5.1875 0.4375 5.1875 -1 3 C-0.67 2.01 -0.34 1.02 0 0 Z " fill="#E88428" transform="translate(297,264)"/>
<path d="" fill="#FFFFFF" transform="translate(0,0)"/>
<path d="" fill="#000000" transform="translate(0,0)"/>
<path d="" fill="#FFFFFF" transform="translate(0,0)"/>
<path d="" fill="#000000" transform="translate(0,0)"/>
<path d="" fill="#FFFFFF" transform="translate(0,0)"/>
<path d="" fill="#000000" transform="translate(0,0)"/>
<path d="" fill="#FFFFFF" transform="translate(0,0)"/>
<path d="" fill="#000000" transform="translate(0,0)"/>
<path d="" fill="#000000" transform="translate(0,0)"/>
<path d="" fill="#000000" transform="translate(0,0)"/>
<path d="" fill="#000000" transform="translate(0,0)"/>
<path d="" fill="#000000" transform="translate(0,0)"/>
<path d="" fill="#000000" transform="translate(0,0)"/>
<path d="" fill="#000000" transform="translate(0,0)"/>
<path d="" fill="#FF00FF" transform="translate(0,0)"/>
<path d="" fill="#000000" transform="translate(0,0)"/>
<path d="" fill="#000000" transform="translate(0,0)"/>
<path d="" fill="#FFFF00" transform="translate(0,0)"/>
<path d="" fill="#000000" transform="translate(0,0)"/>
<path d="" fill="#000000" transform="translate(0,0)"/>
<path d="" fill="#FFFFFF" transform="translate(0,0)"/>
<path d="" fill="#000000" transform="translate(0,0)"/>
<path d="" fill="#000000" transform="translate(0,0)"/>
<path d="" fill="#000000" transform="translate(0,0)"/>
<path d="" fill="#000000" transform="translate(0,0)"/>
<path d="" fill="#FFFFFF" transform="translate(0,0)"/>
<path d="" fill="#000000" transform="translate(0,0)"/>
<path d="" fill="#000000" transform="translate(0,0)"/>
<path d="" fill="#000000" transform="translate(0,0)"/>
<path d="" fill="#00FF00" transform="translate(0,0)"/>
<path d="" fill="#000000" transform="translate(0,0)"/>
<path d="" fill="#000000" transform="translate(0,0)"/>
<path d="" fill="#000000" transform="translate(0,0)"/>
<path d="" fill="#FFFFFF" transform="translate(0,0)"/>
<path d="" fill="#000000" transform="translate(0,0)"/>
<path d="" fill="#000000" transform="translate(0,0)"/>
<path d="" fill="#FFFFFF" transform="translate(0,0)"/>
<path d="" fill="#FFFF00" transform="translate(0,0)"/>
<path d="" fill="#000000" transform="translate(0,0)"/>
<path d="" fill="#FFFF00" transform="translate(0,0)"/>
<path d="" fill="#000000" transform="translate(0,0)"/>
<path d="" fill="#FFFFFF" transform="translate(0,0)"/>
<path d="" fill="#000000" transform="translate(0,0)"/>
<path d="" fill="#000000" transform="translate(0,0)"/>
<path d="" fill="#000000" transform="translate(0,0)"/>
<path d="" fill="#FFFFFF" transform="translate(0,0)"/>
<path d="" fill="#000000" transform="translate(0,0)"/>
<path d="" fill="#FFFFFF" transform="translate(0,0)"/>
<path d="" fill="#000000" transform="translate(0,0)"/>
<path d="" fill="#FFFFFF" transform="translate(0,0)"/>
<path d="" fill="#FFFFFF" transform="translate(0,0)"/>
<path d="" fill="#FFFFFF" transform="translate(0,0)"/>
<path d="" fill="#FFFFFF" transform="translate(0,0)"/>
<path d="" fill="#000000" transform="translate(0,0)"/>
<path d="" fill="#FFFFFF" transform="translate(0,0)"/>
<path d="" fill="#000000" transform="translate(0,0)"/>
<path d="" fill="#000000" transform="translate(0,0)"/>
<path d="" fill="#000000" transform="translate(0,0)"/>
<path d="" fill="#000000" transform="translate(0,0)"/>
</svg>
